# xmcd
#
# Track frame offsets:
#	150
#	16525
#	35271
#	52933
#	72307
#	93697
#	115297
#	132017
#	151077
#	170629
#	183096
#	196282
#	215645
#	219979
#	239778
#	254614
#	273979
#
# Disc length: 3887 seconds
# Revision: 0
# Processed by: cddbd v1.5.2PL0 Copyright (c) Steve Scherf et al.
# Submitted via: dBpowerAMP V12.0
#
DISCID=ef0f2d11
DTITLE=Various Artist - Unbreakable
DYEAR=2015
DGENRE=R&B
TTITLE0=Janet Jackson - Unbreakable
TTITLE1=Janet Jackson and MissyElliott - Burnitup!
TTITLE2=Janet Jackson - Dammn Baby
TTITLE3=Janet Jackson - The Great Forever
TTITLE4=Janet Jackson - Shoulda Known Better
TTITLE5=Janet Jackson - After You Fall
TTITLE6=Janet Jackson - Broken Hearts Heal
TTITLE7=Janet Jackson - Night
TTITLE8=Janet Jackson and J. Cole - No Sleeep
TTITLE9=Janet Jackson - Dream Maker/Euphoria
TTITLE10=Janet Jackson - 2 B Loved
TTITLE11=Janet Jackson - Take Me Away
TTITLE12=Janet Jackson - Promise
TTITLE13=Janet Jackson - Lessons Learned
TTITLE14=Janet Jackson - Black Eagle
TTITLE15=Janet Jackson - Well Traveled
TTITLE16=Janet Jackson - Gon' B Alright
EXTD=
EXTT0=
EXTT1=
EXTT2=
EXTT3=
EXTT4=
EXTT5=
EXTT6=
EXTT7=
EXTT8=
EXTT9=
EXTT10=
EXTT11=
EXTT12=
EXTT13=
EXTT14=
EXTT15=
EXTT16=
PLAYORDER=
